<svg width="24" height="24" viewBox="0 0 24 24" fill="none" xmlns="http://www.w3.org/2000/svg">
<path d="M4.00067 16.5511C2.30116 14.8505 1.45086 14.0013 1.13515 12.8979C0.818352 11.7946 1.08895 10.6231 1.63016 8.28122L1.94146 6.93041C2.39576 4.9592 2.62346 3.97359 3.29777 3.29819C3.97317 2.62388 4.95878 2.39618 6.92999 1.94188L8.2808 1.62947C10.6238 1.08937 11.7942 0.818769 12.8975 1.13447C14.0008 1.45127 14.85 2.30158 16.5496 4.00109L18.5626 6.0141C21.5227 8.97312 23 10.4515 23 12.2885C23 14.1267 21.5216 15.6051 18.5637 18.563C15.6046 21.522 14.1262 23.0004 12.2881 23.0004C10.4511 23.0004 8.97161 21.522 6.01369 18.5641L4.00067 16.5511Z" stroke="#9999AD" stroke-width="1.5"/>
<path d="M9.82325 10.1229C10.6824 9.26375 10.6824 7.87077 9.82325 7.01161C8.96409 6.15246 7.57112 6.15246 6.71196 7.01162C5.8528 7.87077 5.8528 9.26375 6.71196 10.1229C7.57112 10.9821 8.96409 10.9821 9.82325 10.1229Z" stroke="#9999AD" stroke-width="1.5"/>
<path d="M11.4962 19.1504L19.1731 11.4724" stroke="#9999AD" stroke-width="1.5" stroke-linecap="round"/>
</svg>
