<svg width="22" height="22" viewBox="0 0 22 22" fill="none" xmlns="http://www.w3.org/2000/svg">
<path d="M6.07102 2.7508H4.64702C4.80588 1.9743 5.22797 1.27646 5.84196 0.775241C6.45595 0.274027 7.22417 0.000183205 8.01676 0H16.7276C18.1259 0 19.467 0.55548 20.4558 1.54424C21.4445 2.533 22 3.87405 22 5.27237V13.9832C22 14.7743 21.7273 15.5411 21.2279 16.1546C20.7285 16.7681 20.033 17.1907 19.2584 17.3511V15.9253C19.6583 15.7816 20.0042 15.518 20.2487 15.1704C20.4932 14.8228 20.6245 14.4082 20.6246 13.9832V5.27237C20.6246 4.23883 20.214 3.24762 19.4832 2.5168C18.7524 1.78597 17.7612 1.3754 16.7276 1.3754H8.01676C7.59001 1.37527 7.17373 1.50748 6.82525 1.75381C6.47678 2.00014 6.21327 2.34846 6.07102 2.7508ZM3.4385 3.66774C2.52656 3.66774 1.65196 4.03001 1.00711 4.67485C0.36227 5.3197 0 6.19429 0 7.10624V18.5679C0 19.4799 0.36227 20.3545 1.00711 20.9993C1.65196 21.6442 2.52656 22.0064 3.4385 22.0064H14.9002C15.8121 22.0064 16.6867 21.6442 17.3316 20.9993C17.9764 20.3545 18.3387 19.4799 18.3387 18.5679V7.10624C18.3387 6.19429 17.9764 5.3197 17.3316 4.67485C16.6867 4.03001 15.8121 3.66774 14.9002 3.66774H3.4385ZM1.3754 7.10624C1.3754 6.55907 1.59276 6.03431 1.97967 5.64741C2.36658 5.2605 2.89133 5.04314 3.4385 5.04314H14.9002C15.4473 5.04314 15.9721 5.2605 16.359 5.64741C16.7459 6.03431 16.9633 6.55907 16.9633 7.10624V18.5679C16.9633 19.1151 16.7459 19.6398 16.359 20.0268C15.9721 20.4137 15.4473 20.631 14.9002 20.631H3.4385C2.89133 20.631 2.36658 20.4137 1.97967 20.0268C1.59276 19.6398 1.3754 19.1151 1.3754 18.5679V7.10624Z" fill="#9999AD"/>
</svg>
