<svg width="22" height="22" viewBox="0 0 22 22" fill="none" xmlns="http://www.w3.org/2000/svg">
<path d="M4.51245 10.9993C4.51245 10.7415 4.61483 10.4944 4.79705 10.3122C4.97928 10.1299 5.22644 10.0276 5.48415 10.0276H10.0097V5.50203C10.0097 5.24432 10.112 4.99717 10.2943 4.81494C10.4765 4.63271 10.7237 4.53033 10.9814 4.53033C11.2391 4.53033 11.4862 4.63271 11.6685 4.81494C11.8507 4.99717 11.9531 5.24432 11.9531 5.50203V10.0276H16.4786C16.7363 10.0276 16.9835 10.1299 17.1657 10.3122C17.3479 10.4944 17.4503 10.7415 17.4503 10.9993C17.4503 11.257 17.3479 11.5041 17.1657 11.6863C16.9835 11.8686 16.7363 11.971 16.4786 11.971H11.9531V16.4965C11.9531 16.7542 11.8507 17.0013 11.6685 17.1836C11.4862 17.3658 11.2391 17.4682 10.9814 17.4682C10.7237 17.4682 10.4765 17.3658 10.2943 17.1836C10.112 17.0013 10.0097 16.7542 10.0097 16.4965V11.971H5.48415C5.22644 11.971 4.97928 11.8686 4.79705 11.6863C4.61483 11.5041 4.51245 11.257 4.51245 10.9993Z" fill="#9999AD"/>
<path fill-rule="evenodd" clip-rule="evenodd" d="M4.91409 0.335277C8.9466 -0.111759 13.0162 -0.111759 17.0487 0.335277C19.4157 0.599579 21.3267 2.46394 21.604 4.84396C22.0834 8.93416 22.0834 13.0658 21.604 17.156C21.3254 19.536 19.4144 21.3991 17.0487 21.6647C13.0162 22.1118 8.9466 22.1118 4.91409 21.6647C2.54704 21.3991 0.636031 19.536 0.358773 17.156C-0.119591 13.0659 -0.119591 8.93404 0.358773 4.84396C0.636031 2.46394 2.54833 0.599579 4.91409 0.335277ZM16.8336 2.26572C12.944 1.83459 9.01873 1.83459 5.12916 2.26572C4.40913 2.3456 3.73705 2.66589 3.2215 3.17486C2.70595 3.68383 2.37704 4.35174 2.28792 5.07069C1.82714 9.01056 1.82714 12.9907 2.28792 16.9306C2.37732 17.6493 2.70634 18.3169 3.22186 18.8256C3.73739 19.3343 4.40932 19.6544 5.12916 19.7343C8.98616 20.1644 12.9766 20.1644 16.8336 19.7343C17.5532 19.6542 18.2248 19.3339 18.7401 18.8253C19.2554 18.3166 19.5842 17.6491 19.6735 16.9306C20.1343 12.9907 20.1343 9.01056 19.6735 5.07069C19.5839 4.3524 19.255 3.68524 18.7397 3.17681C18.2245 2.66839 17.553 2.34835 16.8336 2.26831" fill="#9999AD"/>
</svg>
