<svg width="16" height="9" viewBox="0 0 16 9" fill="none" xmlns="http://www.w3.org/2000/svg">
<path d="M8.10279 7.27726L14.8104 0.579294C14.8755 0.513843 14.9531 0.462123 15.0386 0.427199C15.1241 0.392275 15.2157 0.374857 15.308 0.375976C15.4003 0.377095 15.4915 0.396729 15.5761 0.433714C15.6607 0.470699 15.737 0.524284 15.8005 0.591294C15.9306 0.728358 16.0022 0.910756 15.9999 1.09973C15.9977 1.2887 15.9219 1.46935 15.7885 1.60329L8.58484 8.79625C8.5202 8.86132 8.44324 8.91285 8.35845 8.94783C8.27366 8.98282 8.18275 9.00055 8.09103 8.99999C7.99931 8.99943 7.90862 8.98059 7.82427 8.94458C7.73991 8.90857 7.66359 8.8561 7.59975 8.79025L0.204043 1.21929C0.0731536 1.08376 0 0.902704 0 0.714294C0 0.525883 0.0731536 0.344832 0.204043 0.209296C0.268362 0.143072 0.345316 0.0904251 0.43035 0.0544745C0.515384 0.0185239 0.606768 0 0.69909 0C0.791413 0 0.882797 0.0185239 0.967831 0.0544745C1.05286 0.0904251 1.12982 0.143072 1.19414 0.209296L8.10279 7.27726Z" fill="#9999AD"/>
</svg>
