<svg width="31" height="23" viewBox="0 0 31 23" fill="none" xmlns="http://www.w3.org/2000/svg">
<path d="M1.414 7.97C1.78906 7.59506 2.29767 7.38443 2.828 7.38443C3.35833 7.38443 3.86695 7.59506 4.242 7.97L11.314 15.042L25.454 0.900004C25.6397 0.714184 25.8602 0.566757 26.1028 0.466141C26.3455 0.365526 26.6056 0.313692 26.8683 0.313599C27.131 0.313506 27.3911 0.365156 27.6339 0.4656C27.8766 0.566044 28.0972 0.713315 28.283 0.899004C28.4688 1.08469 28.6163 1.30516 28.7169 1.54783C28.8175 1.79049 28.8693 2.0506 28.8694 2.3133C28.8695 2.57599 28.8179 2.83614 28.7174 3.07887C28.617 3.32161 28.4697 3.54218 28.284 3.728L11.314 20.698L1.414 10.798C1.03906 10.4229 0.82843 9.91433 0.82843 9.384C0.82843 8.85368 1.03906 8.34506 1.414 7.97Z" fill="white" stroke="black" stroke-width="1"/>
</svg>
