<svg width="22" height="22" viewBox="0 0 22 22" fill="none" xmlns="http://www.w3.org/2000/svg">
<path d="M13.0465 20.4651H8.95346V22H13.0465V20.4651ZM1.53488 13.0465V8.95352H1.29521e-06V13.0465H1.53488ZM20.4651 12.5994V13.0465H21.9999V12.5994H20.4651ZM13.9582 3.43921L18.0092 7.08506L19.0356 5.94311L14.9855 2.29726L13.9582 3.43921ZM21.9999 12.5994C21.9999 10.8711 22.0153 9.77621 21.5804 8.79798L20.1775 9.42319C20.4497 10.0351 20.4651 10.736 20.4651 12.5994H21.9999ZM18.0092 7.08506C19.3937 8.33138 19.9053 8.81231 20.1775 9.42319L21.5804 8.79798C21.1445 7.81873 20.3208 7.09938 19.0356 5.94311L18.0092 7.08506ZM8.98416 1.53494C10.6029 1.53494 11.2138 1.54722 11.7572 1.75596L12.3077 0.323405C11.4359 -0.012222 10.4863 5.70826e-05 8.98416 5.70826e-05V1.53494ZM14.9855 2.29828C13.8743 1.29856 13.1795 0.656985 12.3077 0.323405L11.7582 1.75596C12.3026 1.9647 12.761 2.36172 13.9582 3.43921L14.9855 2.29828ZM8.95346 20.4651C7.00212 20.4651 5.61664 20.4631 4.56371 20.3219C3.53534 20.1837 2.94185 19.9238 2.50902 19.491L1.42437 20.5756C2.18976 21.3431 3.16083 21.6818 4.36008 21.8434C5.53682 22.002 7.04612 22 8.95346 22V20.4651ZM1.29521e-06 13.0465C1.29521e-06 14.9539 -0.00204521 16.4621 0.156559 17.6399C0.318233 18.8392 0.657953 19.8102 1.42335 20.5766L2.50799 19.492C2.07618 19.0581 1.81627 18.4646 1.67814 17.4353C1.53693 16.3844 1.53488 14.9979 1.53488 13.0465H1.29521e-06ZM13.0465 22C14.9538 22 16.4621 22.002 17.6399 21.8434C18.8391 21.6818 19.8102 21.342 20.5766 20.5766L19.4919 19.492C19.0581 19.9238 18.4646 20.1837 17.4352 20.3219C16.3843 20.4631 14.9978 20.4651 13.0465 20.4651V22ZM20.4651 13.0465C20.4651 14.9979 20.463 16.3844 20.3218 17.4363C20.1837 18.4647 19.9238 19.0581 19.4909 19.491L20.5756 20.5756C21.343 19.8102 21.6817 18.8392 21.8434 17.6399C22.002 16.4632 21.9999 14.9539 21.9999 13.0465H20.4651ZM1.53488 8.95352C1.53488 7.00217 1.53693 5.61669 1.67814 4.56376C1.81627 3.53539 2.07618 2.94191 2.50902 2.50907L1.42437 1.42442C0.656929 2.18982 0.318233 3.16088 0.156559 4.36014C-0.00204521 5.53688 1.29521e-06 7.04617 1.29521e-06 8.95352H1.53488ZM8.98416 5.70826e-05C7.06556 5.70826e-05 5.55012 -0.00198942 4.36827 0.156615C3.1639 0.318289 2.18976 0.658009 1.42335 1.4234L2.50799 2.50805C2.94185 2.07624 3.53636 1.81633 4.57189 1.67819C5.62891 1.53698 7.02258 1.53494 8.98416 1.53494V5.70826e-05Z" fill="#9999AD"/>
<path d="M12.0232 1.27905V3.83718C12.0232 6.24899 12.0232 7.45541 12.7722 8.20443C13.5212 8.95345 14.7276 8.95345 17.1395 8.95345H21.2325" stroke="#9999AD" stroke-width="1.5"/>
</svg>
