<svg width="23" height="24" viewBox="0 0 23 24" fill="none" xmlns="http://www.w3.org/2000/svg">
<path d="M11.371 15.3C13.1935 15.3 14.671 13.8226 14.671 12C14.671 10.1775 13.1935 8.70001 11.371 8.70001C9.54844 8.70001 8.07098 10.1775 8.07098 12C8.07098 13.8226 9.54844 15.3 11.371 15.3Z" stroke="#9999AD" stroke-width="1.5"/>
<path d="M13.3125 1.1672C12.9088 1 12.3962 1 11.371 1C10.3458 1 9.8332 1 9.4295 1.1672C9.1624 1.27776 8.91971 1.43989 8.7153 1.6443C8.51089 1.84871 8.34877 2.0914 8.2382 2.3585C8.137 2.6038 8.0963 2.8909 8.0809 3.3078C8.07405 3.60919 7.9907 3.90389 7.8387 4.16423C7.68669 4.42456 7.47101 4.642 7.2119 4.7961C6.94889 4.94355 6.65271 5.02171 6.35119 5.02325C6.04967 5.02479 5.75271 4.94965 5.4882 4.8049C5.1186 4.6091 4.8513 4.5013 4.5862 4.4661C4.00795 4.39006 3.42317 4.54674 2.9604 4.9017C2.615 5.169 2.3576 5.6123 1.845 6.5C1.3324 7.3877 1.075 7.831 1.0189 8.2655C0.981102 8.552 1.00012 8.84314 1.07486 9.12228C1.1496 9.40143 1.2786 9.66312 1.4545 9.8924C1.6173 10.1036 1.845 10.2807 2.1981 10.5029C2.7184 10.8296 3.0528 11.3862 3.0528 12C3.0528 12.6138 2.7184 13.1704 2.1981 13.496C1.845 13.7193 1.6162 13.8964 1.4545 14.1076C1.2786 14.3369 1.1496 14.5986 1.07486 14.8777C1.00012 15.1569 0.981102 15.448 1.0189 15.7345C1.0761 16.1679 1.3324 16.6123 1.8439 17.5C2.3576 18.3877 2.6139 18.831 2.9604 19.0983C3.18968 19.2742 3.45137 19.4032 3.73052 19.4779C4.00967 19.5527 4.30081 19.5717 4.5873 19.5339C4.8513 19.4987 5.1186 19.3909 5.4882 19.1951C5.75271 19.0503 6.04967 18.9752 6.35119 18.9767C6.65271 18.9783 6.94889 19.0565 7.2119 19.2039C7.7432 19.5119 8.0589 20.0784 8.0809 20.6922C8.0963 21.1102 8.1359 21.3962 8.2382 21.6415C8.34877 21.9086 8.51089 22.1513 8.7153 22.3557C8.91971 22.5601 9.1624 22.7222 9.4295 22.8328C9.8332 23 10.3458 23 11.371 23C12.3962 23 12.9088 23 13.3125 22.8328C13.5796 22.7222 13.8223 22.5601 14.0267 22.3557C14.2311 22.1513 14.3932 21.9086 14.5038 21.6415C14.605 21.3962 14.6457 21.1102 14.6611 20.6922C14.6831 20.0784 14.9988 19.5108 15.5301 19.2039C15.7931 19.0565 16.0893 18.9783 16.3908 18.9767C16.6923 18.9752 16.9893 19.0503 17.2538 19.1951C17.6234 19.3909 17.8907 19.4987 18.1547 19.5339C18.4412 19.5717 18.7323 19.5527 19.0115 19.4779C19.2906 19.4032 19.5523 19.2742 19.7816 19.0983C20.1281 18.8321 20.3844 18.3877 20.897 17.5C21.4096 16.6123 21.667 16.169 21.7231 15.7345C21.7609 15.448 21.7419 15.1569 21.6672 14.8777C21.5924 14.5986 21.4634 14.3369 21.2875 14.1076C21.1247 13.8964 20.897 13.7193 20.5439 13.4971C20.2862 13.3405 20.0726 13.1209 19.9231 12.859C19.7736 12.5971 19.6931 12.3015 19.6892 12C19.6892 11.3862 20.0236 10.8296 20.5439 10.504C20.897 10.2807 21.1258 10.1036 21.2875 9.8924C21.4634 9.66312 21.5924 9.40143 21.6672 9.12228C21.7419 8.84314 21.7609 8.552 21.7231 8.2655C21.6659 7.8321 21.4096 7.3877 20.8981 6.5C20.3844 5.6123 20.1281 5.169 19.7816 4.9017C19.5523 4.7258 19.2906 4.59679 19.0115 4.52205C18.7323 4.44731 18.4412 4.4283 18.1547 4.4661C17.8907 4.5013 17.6234 4.6091 17.2527 4.8049C16.9883 4.94946 16.6916 5.02449 16.3903 5.02295C16.089 5.02141 15.793 4.94335 15.5301 4.7961C15.271 4.642 15.0553 4.42456 14.9033 4.16423C14.7513 3.90389 14.668 3.60919 14.6611 3.3078C14.6457 2.8898 14.6061 2.6038 14.5038 2.3585C14.3932 2.0914 14.2311 1.84871 14.0267 1.6443C13.8223 1.43989 13.5796 1.27776 13.3125 1.1672Z" stroke="#9999AD" stroke-width="1.5"/>
</svg>
